<?xml version="1.0" encoding="UTF-8"?>
<svg id="Layer_3" xmlns="http://www.w3.org/2000/svg" version="1.1" viewBox="0 0 3734.54 894.56">
  <!-- Generator: Adobe Illustrator 30.1.0, SVG Export Plug-In . SVG Version: 2.1.1 Build 136)  -->
  <defs>
    <style>
      .st0 {
        fill: #9889c1;
      }

      .st1 {
        fill: #f36e21;
      }

      .st2 {
        fill: #95d0a6;
      }
    </style>
  </defs>
  <g id="Layer_1">
    <g>
      <path class="st0" d="M287.34,301.1c61.75,0,126.79,18.11,147.38,36.22v163.02c-21.41-21.41-64.22-47.75-122.68-47.75-78.22,0-144.09,61.75-144.09,144.91s65.87,144.91,144.09,144.91c58.46,0,101.27-26.35,122.68-47.75v163.02c-31.29,18.11-81.51,36.22-147.38,36.22C144.08,893.9,0,792.63,0,597.5s144.08-296.4,287.34-296.4"/>
      <path class="st0" d="M602.68,309.33h228.89l144.9,576.33h-161.37l-16.47-70.8h-163.02l-16.47,70.8h-161.38l144.91-576.33ZM768.16,686.42l-51.05-216.54-51.05,216.54h102.1Z"/>
      <path class="st0" d="M999.51,309.34h228.89c141.61,0,233,77.39,233,214.89,0,85.62-39.52,141.61-107.86,168.78l102.92,192.66h-170.43l-88.92-171.25h-32.93v171.25h-164.67V309.34ZM1220.17,590.91c44.46,0,79.86-15.64,79.86-66.69s-35.41-66.69-79.86-66.69h-55.99v133.38h55.99Z"/>
      <path class="st0" d="M1502.56,309.34h228.89c141.61,0,233,77.39,233,214.89,0,85.62-39.52,141.61-107.86,168.78l102.92,192.66h-170.43l-88.92-171.25h-32.93v171.25h-164.67V309.34ZM1723.22,590.91c44.46,0,79.86-15.64,79.86-66.69s-35.41-66.69-79.86-66.69h-55.99v133.38h55.99Z"/>
      <polygon class="st0" points="2984.35 442.33 2832.5 442.33 2861.54 305.42 3327.05 305.42 3298.01 442.33 3146.99 442.33 3052.39 886.26 2889.76 886.26 2984.35 442.33"/>
      <path class="st0" d="M3575.22,297.12c59.74,0,124.46,12.45,159.31,43.98l-34.85,161.8c-33.19-29.87-73.85-57.25-116.17-57.25-32.36,0-54.77,14.93-59.74,38.17-13.27,62.24,175.08,129.45,148.53,253.08-19.91,97.09-121.14,157.66-238.14,157.66-79.66,0-145.21-27.38-177.57-53.11l34.02-161.8c31.53,31.53,78.83,66.38,134.42,66.38,28.21,0,48.13-9.12,53.11-30.7,9.96-46.47-175.91-123.64-146.87-260.55,19.91-96.26,129.44-157.66,243.95-157.66"/>
      <path class="st1" d="M2017.36,883.49c0-205.86,166.87-372.73,372.73-372.73s372.72,166.87,372.72,372.73h-745.45Z"/>
      <rect class="st2" x="2017.36" y="303.61" width="745.45" height="138.24"/>
      <rect class="st2" x="2320.96" width="138.24" height="441.85"/>
      <polygon class="st2" points="2556.99 441.84 2361.49 441.84 2320.97 401.31 2292.36 372.7 2077.67 158.03 2175.42 60.28 2390.1 274.96 2418.75 303.61 2459.2 344.06 2487.85 372.7 2556.99 441.84"/>
      <polygon class="st2" points="2702.53 158.02 2487.85 372.71 2459.2 401.36 2418.71 441.84 2223.22 441.84 2292.36 372.71 2320.97 344.1 2361.45 303.61 2390.1 274.96 2459.2 205.86 2604.79 60.28 2702.53 158.02"/>
    </g>
  </g>
</svg>